<svg xmlns="http://www.w3.org/2000/svg" version="1.1" xmlns:xlink="http://www.w3.org/1999/xlink" xmlns:svgjs="http://svgjs.dev/svgjs" width="1000" height="1000" viewBox="0 0 1000 1000"><rect width="1000" height="1000" fill="#000000"></rect><g transform="matrix(0.7,0,0,0.7,149.57765761537036,227.57076923076926)"><svg viewBox="0 0 317 247" data-background-color="#000000" preserveAspectRatio="xMidYMid meet" height="779" width="1000" xmlns="http://www.w3.org/2000/svg" xmlns:xlink="http://www.w3.org/1999/xlink"><g id="tight-bounds" transform="matrix(1,0,0,1,0.19126076561084915,-0.09999999999999432)"><svg viewBox="0 0 316.6174784687783 247.2" height="247.2" width="316.6174784687783"><g><svg viewBox="0 0 397.4975999999999 310.34738573249535" height="247.2" width="316.6174784687783"><g></g><g transform="matrix(1,0,0,1,0.9887999999999693,194.81482502060183)"><svg viewBox="0 0 395.52 115.53256071189358" height="115.53256071189358" width="395.52"><g id="textblocktransform"><svg viewBox="0 0 395.52 115.53256071189358" height="115.53256071189358" width="395.52" id="textblock"><g><svg viewBox="0 0 395.52 62.50535557506584" height="62.50535557506584" width="395.52"><g transform="matrix(1,0,0,1,0,0)"><svg width="395.52" viewBox="1.65 -35.5 226.98 36" height="62.50535557506584" data-palette-color="url(#3929438a-f75a-4b0e-b1b7-d7395b32ec8e)"><g class="wordmark-text-0" data-fill-palette-color="primary" id="text-0"></g></svg></g></svg></g><g transform="matrix(1,0,0,1,0,77.26136989780508)"><svg viewBox="0 0 395.52 38.27119081408849" height="38.27119081408849" width="395.52"><g transform="matrix(1,0,0,1,0,0)"><svg width="395.52" viewBox="3.1 -37.5 387.54999999999995 37.5" height="38.27119081408849" data-palette-color="url(#41108018-2b3b-4f43-be18-1eef76e68138)"></svg></g></svg></g></svg></g></svg></g><g transform="matrix(1,0,0,1,79.69229560903126,0)"><svg viewBox="0 0 238.1130087819374 159.66599890383694" height="159.66599890383694" width="238.1130087819374"><g><svg xmlns="http://www.w3.org/2000/svg" xmlns:xlink="http://www.w3.org/1999/xlink" version="1.1" x="0" y="0" viewBox="2.2 15.4 85.9 57.6" enable-background="new 0 0 90 90" xml:space="preserve" height="159.66599890383694" width="238.1130087819374" class="icon-icon-0" data-fill-palette-color="accent" id="icon-0"></svg></g></svg></g><g></g></svg></g><defs></defs><mask id="573ba879-0ee7-45e3-bce8-10c8d5451f27"><g id="SvgjsG1383"><svg viewBox="0 0 316.6174784687783 247.2" height="247.2" width="316.6174784687783"><g><svg viewBox="0 0 397.4975999999999 310.34738573249535" height="247.2" width="316.6174784687783"><g><rect width="397.4975999999999" height="5.636797471286391" x="0" y="174.42201322657618" fill="white" opacity="1" stroke-width="0" stroke="transparent" fill-opacity="1" class="rect-r$-0" rx="1%" id="SvgjsRect1382" data-palette-color="url(#3929438a-f75a-4b0e-b1b7-d7395b32ec8e)"></rect></g><g transform="matrix(1,0,0,1,0.9887999999999693,194.81482502060183)"><svg viewBox="0 0 395.52 115.53256071189358" height="115.53256071189358" width="395.52"><g id="SvgjsG1381"><svg viewBox="0 0 395.52 115.53256071189358" height="115.53256071189358" width="395.52" id="SvgjsSvg1380"><g><svg viewBox="0 0 395.52 62.50535557506584" height="62.50535557506584" width="395.52"><g transform="matrix(1,0,0,1,0,0)"><svg width="395.52" viewBox="1.65 -35.5 226.98 36" height="62.50535557506584" data-palette-color="url(#3929438a-f75a-4b0e-b1b7-d7395b32ec8e)"><g class="wordmark-text-0" data-fill-palette-color="primary" id="SvgjsG1379"><path d="M9.85 0.5Q5.85 0.5 3.75-1.78 1.65-4.05 1.65-8.3L1.65-8.3 1.65-26.7Q1.65-30.95 3.75-33.23 5.85-35.5 9.85-35.5L9.85-35.5Q13.85-35.5 15.95-33.23 18.05-30.95 18.05-26.7L18.05-26.7 18.05-23.7 12.85-23.7 12.85-27.05Q12.85-30.5 10-30.5L10-30.5Q7.15-30.5 7.15-27.05L7.15-27.05 7.15-7.9Q7.15-4.5 10-4.5L10-4.5Q12.85-4.5 12.85-7.9L12.85-7.9 12.85-14.75 10.1-14.75 10.1-19.75 18.05-19.75 18.05-8.3Q18.05-4.05 15.95-1.78 13.85 0.5 9.85 0.5L9.85 0.5ZM20.15 0L25.85-35 33.3-35 39 0 33.5 0 32.5-6.95 32.5-6.85 26.25-6.85 25.25 0 20.15 0ZM26.9-11.6L31.85-11.6 29.4-28.9 29.3-28.9 26.9-11.6ZM41.64 0L41.64-35 50.05-35Q54.14-35 56.2-32.8 58.25-30.6 58.25-26.35L58.25-26.35 58.25-8.65Q58.25-4.4 56.2-2.2 54.14 0 50.05 0L50.05 0 41.64 0ZM47.14-5L49.95-5Q51.3-5 52.02-5.8 52.74-6.6 52.74-8.4L52.74-8.4 52.74-26.6Q52.74-28.4 52.02-29.2 51.3-30 49.95-30L49.95-30 47.14-30 47.14-5ZM69.74 0.5Q65.74 0.5 63.64-1.78 61.54-4.05 61.54-8.3L61.54-8.3 61.54-26.7Q61.54-30.95 63.64-33.23 65.74-35.5 69.74-35.5L69.74-35.5Q73.74-35.5 75.84-33.23 77.94-30.95 77.94-26.7L77.94-26.7 77.94-23.7 72.74-23.7 72.74-27.05Q72.74-30.5 69.89-30.5L69.89-30.5Q67.04-30.5 67.04-27.05L67.04-27.05 67.04-7.9Q67.04-4.5 69.89-4.5L69.89-4.5Q72.74-4.5 72.74-7.9L72.74-7.9 72.74-14.75 69.99-14.75 69.99-19.75 77.94-19.75 77.94-8.3Q77.94-4.05 75.84-1.78 73.74 0.5 69.74 0.5L69.74 0.5ZM81.49 0L81.49-35 96.49-35 96.49-30 86.99-30 86.99-20.75 94.54-20.75 94.54-15.75 86.99-15.75 86.99-5 96.49-5 96.49 0 81.49 0ZM103.94 0L103.94-30 98.19-30 98.19-35 115.19-35 115.19-30 109.44-30 109.44 0 103.94 0Z" fill="white"></path></g></svg></g></svg></g><g transform="matrix(1,0,0,1,0,77.26136989780508)"><svg viewBox="0 0 395.52 38.27119081408849" height="38.27119081408849" width="395.52"><g transform="matrix(1,0,0,1,0,0)"><svg width="395.52" viewBox="3.1 -37.5 387.54999999999995 37.5" height="38.27119081408849" data-palette-color="url(#41108018-2b3b-4f43-be18-1eef76e68138)"></svg></g></svg></g></svg></g></svg></g><g transform="matrix(1,0,0,1,79.69229560903126,0)"><svg viewBox="0 0 238.1130087819374 159.66599890383694" height="159.66599890383694" width="238.1130087819374"><g><svg xmlns="http://www.w3.org/2000/svg" xmlns:xlink="http://www.w3.org/1999/xlink" version="1.1" x="0" y="0" viewBox="2.2 15.4 85.9 57.6" enable-background="new 0 0 90 90" xml:space="preserve" height="159.66599890383694" width="238.1130087819374" class="icon-icon-0" data-fill-palette-color="accent" id="SvgjsSvg1377"></svg></g></svg></g><g></g></svg></g><defs><mask></mask></defs></svg></g></mask><linearGradient x1="0.054" x2="0.941" y1="0.5" y2="0.5" id="3929438a-f75a-4b0e-b1b7-d7395b32ec8e"><stop stop-color="#eaa79c" offset="0"></stop><stop stop-color="#f2e8cb" offset="0.498"></stop><stop stop-color="#eaa79c" offset="1"></stop></linearGradient><rect width="316.6174784687783" height="247.2" fill="url(#3929438a-f75a-4b0e-b1b7-d7395b32ec8e)" mask="url(#573ba879-0ee7-45e3-bce8-10c8d5451f27)" data-fill-palette-color="primary"></rect><mask id="bdaab7db-7c7d-4ceb-b0f2-4535bcceee83"><g id="SvgjsG1395"><svg viewBox="0 0 316.6174784687783 247.2" height="247.2" width="316.6174784687783"><g><svg viewBox="0 0 397.4975999999999 310.34738573249535" height="247.2" width="316.6174784687783"><g></g><g transform="matrix(1,0,0,1,0.9887999999999693,194.81482502060183)"><svg viewBox="0 0 395.52 115.53256071189358" height="115.53256071189358" width="395.52"><g id="SvgjsG1394"><svg viewBox="0 0 395.52 115.53256071189358" height="115.53256071189358" width="395.52" id="SvgjsSvg1393"><g><svg viewBox="0 0 395.52 62.50535557506584" height="62.50535557506584" width="395.52"><g transform="matrix(1,0,0,1,0,0)"><svg width="395.52" viewBox="1.65 -35.5 226.98 36" height="62.50535557506584" data-palette-color="url(#3929438a-f75a-4b0e-b1b7-d7395b32ec8e)"><g class="wordmark-text-0" data-fill-palette-color="primary" id="SvgjsG1392"><path d="M125.24 0L125.24-35 130.74-35 130.74 0 125.24 0ZM141.99 0.5Q137.98 0.5 135.93-1.78 133.89-4.05 133.89-8.3L133.89-8.3 133.89-10.3 139.08-10.3 139.08-7.9Q139.08-4.5 141.93-4.5L141.93-4.5Q143.33-4.5 144.06-5.33 144.78-6.15 144.78-8L144.78-8Q144.78-10.2 143.78-11.88 142.78-13.55 140.08-15.9L140.08-15.9Q136.68-18.9 135.33-21.33 133.98-23.75 133.98-26.8L133.98-26.8Q133.98-30.95 136.08-33.23 138.18-35.5 142.18-35.5L142.18-35.5Q146.14-35.5 148.16-33.23 150.19-30.95 150.19-26.7L150.19-26.7 150.19-25.25 144.99-25.25 144.99-27.05Q144.99-28.85 144.28-29.68 143.58-30.5 142.24-30.5L142.24-30.5Q139.48-30.5 139.48-27.15L139.48-27.15Q139.48-25.25 140.51-23.6 141.53-21.95 144.24-19.6L144.24-19.6Q147.68-16.6 148.99-14.15 150.28-11.7 150.28-8.4L150.28-8.4Q150.28-4.1 148.16-1.8 146.03 0.5 141.99 0.5L141.99 0.5ZM153.43 0L153.43-35 158.93-35 158.93-5 167.98-5 167.98 0 153.43 0ZM169.18 0L174.88-35 182.33-35 188.03 0 182.53 0 181.53-6.95 181.53-6.85 175.28-6.85 174.28 0 169.18 0ZM175.93-11.6L180.88-11.6 178.43-28.9 178.33-28.9 175.93-11.6ZM190.68 0L190.68-35 197.58-35 202.93-14.05 203.03-14.05 203.03-35 207.93-35 207.93 0 202.28 0 195.68-25.55 195.58-25.55 195.58 0 190.68 0ZM212.02 0L212.02-35 220.42-35Q224.52-35 226.57-32.8 228.63-30.6 228.63-26.35L228.63-26.35 228.63-8.65Q228.63-4.4 226.57-2.2 224.52 0 220.42 0L220.42 0 212.02 0ZM217.52-5L220.32-5Q221.67-5 222.4-5.8 223.13-6.6 223.13-8.4L223.13-8.4 223.13-26.6Q223.13-28.4 222.4-29.2 221.67-30 220.32-30L220.32-30 217.52-30 217.52-5Z" fill="white"></path></g></svg></g></svg></g><g transform="matrix(1,0,0,1,0,77.26136989780508)"><svg viewBox="0 0 395.52 38.27119081408849" height="38.27119081408849" width="395.52"><g transform="matrix(1,0,0,1,0,0)"><svg width="395.52" viewBox="3.1 -37.5 387.54999999999995 37.5" height="38.27119081408849" data-palette-color="url(#41108018-2b3b-4f43-be18-1eef76e68138)"><path d="M7.75 0L3.1 0 3.1-35 7.75-35 7.75 0ZM17.75 0L13.05 0 13.05-25 23.5-25Q24.95-25 26.05-23.95 27.15-22.9 27.15-21.4L27.15-21.4 27.15 0 22.45 0 22.45-18.5Q22.45-19.3 21.9-19.8 21.35-20.3 20.65-20.3L20.65-20.3 17.75-20.3 17.75 0ZM35.35 0L30.65 0 30.65-25 41.1-25Q42.55-25 43.65-23.95 44.75-22.9 44.75-21.4L44.75-21.4 44.75 0 40.05 0 40.05-18.5Q40.05-19.3 39.5-19.8 38.95-20.3 38.25-20.3L38.25-20.3 35.35-20.3 35.35 0ZM57.8 0L51 0Q49.45 0 48.4-1.07 47.35-2.15 47.35-3.65L47.35-3.65 47.35-21.35Q47.35-22.85 48.4-23.93 49.45-25 51-25L51-25 57.8-25Q59.3-25 60.35-23.93 61.4-22.85 61.4-21.35L61.4-21.35 61.4-3.65Q61.4-2.15 60.35-1.07 59.3 0 57.8 0L57.8 0ZM53.85-4.7L53.85-4.7 54.9-4.7Q55.65-4.7 56.2-5.23 56.75-5.75 56.75-6.5L56.75-6.5 56.75-18.5Q56.75-19.25 56.2-19.78 55.65-20.3 54.9-20.3L54.9-20.3 53.85-20.3Q53.1-20.3 52.58-19.78 52.05-19.25 52.05-18.5L52.05-18.5 52.05-6.5Q52.05-5.75 52.58-5.23 53.1-4.7 53.85-4.7ZM73.35 0L68.65 0 63.95-25 68.65-25 71-12.5 73.35-25 78.05-25 73.35 0ZM92.65 0L82.2 0Q80.7 0 79.63-1.05 78.55-2.1 78.55-3.65L78.55-3.65 78.55-11.2Q78.55-12.7 79.63-13.78 80.7-14.85 82.2-14.85L82.2-14.85 86.1-14.85Q86.9-14.85 87.43-15.38 87.95-15.9 87.95-16.65L87.95-16.65 87.95-18.5Q87.95-19.25 87.43-19.78 86.9-20.3 86.1-20.3L86.1-20.3 80.7-20.3 81.75-25 89-25Q90.5-25 91.58-23.93 92.65-22.85 92.65-21.35L92.65-21.35 92.65 0ZM85.05-4.7L85.05-4.7 87.95-4.7 87.95-10.15 85.05-10.15Q84.3-10.15 83.78-9.63 83.25-9.1 83.25-8.35L83.25-8.35 83.25-6.5Q83.25-5.75 83.78-5.23 84.3-4.7 85.05-4.7ZM100.35 0L95.65 0 95.65-36.4 100.35-37.45 100.35-25 106.3-25 105.2-20.3 100.35-20.3 100.35 0ZM121.9 0L111.45 0Q109.95 0 108.88-1.07 107.8-2.15 107.8-3.65L107.8-3.65 107.8-21.4Q107.8-22.9 108.88-23.95 109.95-25 111.45-25L111.45-25 118.25-25Q119.8-25 120.85-23.95 121.9-22.9 121.9-21.4L121.9-21.4 121.9-13.8Q121.9-12.3 120.85-11.23 119.8-10.15 118.25-10.15L118.25-10.15 112.5-10.15 112.5-6.5Q112.5-5.75 113.03-5.23 113.55-4.7 114.35-4.7L114.35-4.7 120.85-4.7 121.9 0ZM112.5-18.5L112.5-14.85 115.4-14.85Q116.15-14.85 116.68-15.38 117.2-15.9 117.2-16.65L117.2-16.65 117.2-18.5Q117.2-19.25 116.68-19.78 116.15-20.3 115.4-20.3L115.4-20.3 114.35-20.3Q113.55-20.3 113.03-19.78 112.5-19.25 112.5-18.5L112.5-18.5ZM152.6 0L134 0 134-35 152.6-35 152.6-30.4 138.65-30.4 138.65-21.7 147.95-21.7 146.9-17.05 138.65-17.05 138.65-4.65 152.6-4.65 152.6 0ZM161.4 0L156.7 0 156.7-36.35 161.4-37.4 161.4 0ZM179 0L168.55 0Q167.05 0 165.97-1.07 164.9-2.15 164.9-3.65L164.9-3.65 164.9-21.4Q164.9-22.9 165.97-23.95 167.05-25 168.55-25L168.55-25 175.35-25Q176.9-25 177.95-23.95 179-22.9 179-21.4L179-21.4 179-13.8Q179-12.3 177.95-11.23 176.9-10.15 175.35-10.15L175.35-10.15 169.6-10.15 169.6-6.5Q169.6-5.75 170.13-5.23 170.65-4.7 171.45-4.7L171.45-4.7 177.95-4.7 179 0ZM169.6-18.5L169.6-14.85 172.5-14.85Q173.25-14.85 173.78-15.38 174.3-15.9 174.3-16.65L174.3-16.65 174.3-18.5Q174.3-19.25 173.78-19.78 173.25-20.3 172.5-20.3L172.5-20.3 171.45-20.3Q170.65-20.3 170.13-19.78 169.6-19.25 169.6-18.5L169.6-18.5ZM189.9 0L185.2 0 180.5-25 185.2-25 187.55-12.5 189.9-25 194.6-25 189.9 0ZM209.2 0L198.75 0Q197.25 0 196.17-1.05 195.1-2.1 195.1-3.65L195.1-3.65 195.1-11.2Q195.1-12.7 196.17-13.78 197.25-14.85 198.75-14.85L198.75-14.85 202.65-14.85Q203.45-14.85 203.97-15.38 204.5-15.9 204.5-16.65L204.5-16.65 204.5-18.5Q204.5-19.25 203.97-19.78 203.45-20.3 202.65-20.3L202.65-20.3 197.25-20.3 198.3-25 205.55-25Q207.05-25 208.13-23.93 209.2-22.85 209.2-21.35L209.2-21.35 209.2 0ZM201.6-4.7L201.6-4.7 204.5-4.7 204.5-10.15 201.6-10.15Q200.85-10.15 200.32-9.63 199.8-9.1 199.8-8.35L199.8-8.35 199.8-6.5Q199.8-5.75 200.32-5.23 200.85-4.7 201.6-4.7ZM216.9 0L212.2 0 212.2-36.4 216.9-37.45 216.9-25 222.85-25 221.75-20.3 216.9-20.3 216.9 0ZM238.45 0L228 0Q226.5 0 225.42-1.07 224.35-2.15 224.35-3.65L224.35-3.65 224.35-21.4Q224.35-22.9 225.42-23.95 226.5-25 228-25L228-25 234.8-25Q236.35-25 237.4-23.95 238.45-22.9 238.45-21.4L238.45-21.4 238.45-13.8Q238.45-12.3 237.4-11.23 236.35-10.15 234.8-10.15L234.8-10.15 229.05-10.15 229.05-6.5Q229.05-5.75 229.57-5.23 230.1-4.7 230.9-4.7L230.9-4.7 237.4-4.7 238.45 0ZM229.05-18.5L229.05-14.85 231.95-14.85Q232.7-14.85 233.22-15.38 233.75-15.9 233.75-16.65L233.75-16.65 233.75-18.5Q233.75-19.25 233.22-19.78 232.7-20.3 231.95-20.3L231.95-20.3 230.9-20.3Q230.1-20.3 229.57-19.78 229.05-19.25 229.05-18.5L229.05-18.5ZM265.5 0L254.15 0Q252.75 0 251.65-1.05 250.55-2.1 250.55-3.6L250.55-3.6 250.55-31.4Q250.55-32.85 251.65-33.93 252.75-35 254.15-35L254.15-35 265.5-35Q267.05-35 268.07-33.93 269.1-32.85 269.1-31.4L269.1-31.4 269.1-24.9 264.45-23.85 264.45-28.55Q264.45-29.25 263.97-29.8 263.5-30.35 262.7-30.35L262.7-30.35 257-30.35Q256.3-30.35 255.75-29.8 255.2-29.25 255.2-28.55L255.2-28.55 255.2-6.45Q255.2-5.65 255.75-5.15 256.3-4.65 257-4.65L257-4.65 262.7-4.65Q263.5-4.65 263.97-5.15 264.45-5.65 264.45-6.45L264.45-6.45 264.45-10.1 269.1-11.2 269.1-3.6Q269.1-2.1 268.07-1.05 267.05 0 265.5 0L265.5 0ZM286.8 0L276.35 0Q274.85 0 273.77-1.07 272.7-2.15 272.7-3.65L272.7-3.65 272.7-21.4Q272.7-22.9 273.77-23.95 274.85-25 276.35-25L276.35-25 283.15-25Q284.7-25 285.75-23.95 286.8-22.9 286.8-21.4L286.8-21.4 286.8-13.8Q286.8-12.3 285.75-11.23 284.7-10.15 283.15-10.15L283.15-10.15 277.4-10.15 277.4-6.5Q277.4-5.75 277.93-5.23 278.45-4.7 279.25-4.7L279.25-4.7 285.75-4.7 286.8 0ZM277.4-18.5L277.4-14.85 280.3-14.85Q281.05-14.85 281.57-15.38 282.1-15.9 282.1-16.65L282.1-16.65 282.1-18.5Q282.1-19.25 281.57-19.78 281.05-20.3 280.3-20.3L280.3-20.3 279.25-20.3Q278.45-20.3 277.93-19.78 277.4-19.25 277.4-18.5L277.4-18.5ZM294.5 0L289.8 0 289.8-36.35 294.5-37.4 294.5 0ZM312.1 0L301.65 0Q300.15 0 299.07-1.07 298-2.15 298-3.65L298-3.65 298-21.4Q298-22.9 299.07-23.95 300.15-25 301.65-25L301.65-25 308.45-25Q310-25 311.05-23.95 312.1-22.9 312.1-21.4L312.1-21.4 312.1-13.8Q312.1-12.3 311.05-11.23 310-10.15 308.45-10.15L308.45-10.15 302.7-10.15 302.7-6.5Q302.7-5.75 303.23-5.23 303.75-4.7 304.55-4.7L304.55-4.7 311.05-4.7 312.1 0ZM302.7-18.5L302.7-14.85 305.6-14.85Q306.35-14.85 306.88-15.38 307.4-15.9 307.4-16.65L307.4-16.65 307.4-18.5Q307.4-19.25 306.88-19.78 306.35-20.3 305.6-20.3L305.6-20.3 304.55-20.3Q303.75-20.3 303.23-19.78 302.7-19.25 302.7-18.5L302.7-18.5ZM326.05 0L315.6 0 315.6-36.45 320.3-37.5 320.3-25 326.05-25Q327.55-25 328.63-23.95 329.7-22.9 329.7-21.35L329.7-21.35 329.7-3.65Q329.7-2.15 328.63-1.07 327.55 0 326.05 0L326.05 0ZM320.3-20.3L320.3-4.7 323.15-4.7Q323.9-4.7 324.45-5.23 325-5.75 325-6.5L325-6.5 325-18.5Q325-19.25 324.45-19.78 323.9-20.3 323.15-20.3L323.15-20.3 320.3-20.3ZM337.4 0L332.7 0 332.7-25 343.15-25Q344.65-25 345.73-23.93 346.8-22.85 346.8-21.35L346.8-21.35 346.8-15.9 342.1-16.95 342.1-18.45Q342.1-19.2 341.58-19.75 341.05-20.3 340.3-20.3L340.3-20.3 337.4-20.3 337.4 0ZM361.4 0L350.95 0Q349.45 0 348.38-1.05 347.3-2.1 347.3-3.65L347.3-3.65 347.3-11.2Q347.3-12.7 348.38-13.78 349.45-14.85 350.95-14.85L350.95-14.85 354.85-14.85Q355.65-14.85 356.18-15.38 356.7-15.9 356.7-16.65L356.7-16.65 356.7-18.5Q356.7-19.25 356.18-19.78 355.65-20.3 354.85-20.3L354.85-20.3 349.45-20.3 350.5-25 357.75-25Q359.25-25 360.33-23.93 361.4-22.85 361.4-21.35L361.4-21.35 361.4 0ZM353.8-4.7L353.8-4.7 356.7-4.7 356.7-10.15 353.8-10.15Q353.05-10.15 352.53-9.63 352-9.1 352-8.35L352-8.35 352-6.5Q352-5.75 352.53-5.23 353.05-4.7 353.8-4.7ZM369.1 0L364.4 0 364.4-36.4 369.1-37.45 369.1-25 375.05-25 373.95-20.3 369.1-20.3 369.1 0ZM390.65 0L380.2 0Q378.7 0 377.63-1.07 376.55-2.15 376.55-3.65L376.55-3.65 376.55-21.4Q376.55-22.9 377.63-23.95 378.7-25 380.2-25L380.2-25 387-25Q388.55-25 389.6-23.95 390.65-22.9 390.65-21.4L390.65-21.4 390.65-13.8Q390.65-12.3 389.6-11.23 388.55-10.15 387-10.15L387-10.15 381.25-10.15 381.25-6.5Q381.25-5.75 381.78-5.23 382.3-4.7 383.1-4.7L383.1-4.7 389.6-4.7 390.65 0ZM381.25-18.5L381.25-14.85 384.15-14.85Q384.9-14.85 385.43-15.38 385.95-15.9 385.95-16.65L385.95-16.65 385.95-18.5Q385.95-19.25 385.43-19.78 384.9-20.3 384.15-20.3L384.15-20.3 383.1-20.3Q382.3-20.3 381.78-19.78 381.25-19.25 381.25-18.5L381.25-18.5Z" opacity="1" transform="matrix(1,0,0,1,0,0)" fill="white" class="slogan-text-1" id="SvgjsPath1391"></path></svg></g></svg></g></svg></g></svg></g><g transform="matrix(1,0,0,1,79.69229560903126,0)"><svg viewBox="0 0 238.1130087819374 159.66599890383694" height="159.66599890383694" width="238.1130087819374"><g><svg xmlns="http://www.w3.org/2000/svg" xmlns:xlink="http://www.w3.org/1999/xlink" version="1.1" x="0" y="0" viewBox="2.2 15.4 85.9 57.6" enable-background="new 0 0 90 90" xml:space="preserve" height="159.66599890383694" width="238.1130087819374" class="icon-icon-0" data-fill-palette-color="accent" id="SvgjsSvg1390"></svg></g></svg></g><g></g></svg></g><defs><mask></mask></defs><mask><g id="SvgjsG1389"><svg viewBox="0 0 316.6174784687783 247.2" height="247.2" width="316.6174784687783"><g><svg viewBox="0 0 397.4975999999999 310.34738573249535" height="247.2" width="316.6174784687783"><g></g><g transform="matrix(1,0,0,1,0.9887999999999693,194.81482502060183)"><svg viewBox="0 0 395.52 115.53256071189358" height="115.53256071189358" width="395.52"><g id="SvgjsG1387"><svg viewBox="0 0 395.52 115.53256071189358" height="115.53256071189358" width="395.52" id="SvgjsSvg1386"><g><svg viewBox="0 0 395.52 62.50535557506584" height="62.50535557506584" width="395.52"><g transform="matrix(1,0,0,1,0,0)"><svg width="395.52" viewBox="1.65 -35.5 226.98 36" height="62.50535557506584" data-palette-color="url(#3929438a-f75a-4b0e-b1b7-d7395b32ec8e)"><g class="wordmark-text-0" data-fill-palette-color="primary" id="SvgjsG1385"></g></svg></g></svg></g><g transform="matrix(1,0,0,1,0,77.26136989780508)"><svg viewBox="0 0 395.52 38.27119081408849" height="38.27119081408849" width="395.52"><g transform="matrix(1,0,0,1,0,0)"><svg width="395.52" viewBox="3.1 -37.5 387.54999999999995 37.5" height="38.27119081408849" data-palette-color="url(#41108018-2b3b-4f43-be18-1eef76e68138)"></svg></g></svg></g></svg></g></svg></g><g transform="matrix(1,0,0,1,79.69229560903126,0)"><svg viewBox="0 0 238.1130087819374 159.66599890383694" height="159.66599890383694" width="238.1130087819374"><g><svg xmlns="http://www.w3.org/2000/svg" xmlns:xlink="http://www.w3.org/1999/xlink" version="1.1" x="0" y="0" viewBox="2.2 15.4 85.9 57.6" enable-background="new 0 0 90 90" xml:space="preserve" height="159.66599890383694" width="238.1130087819374" class="icon-icon-0" data-fill-palette-color="accent" id="SvgjsSvg1384"></svg></g></svg></g><g></g></svg></g><defs><mask></mask></defs></svg></g></mask></svg></g></mask><linearGradient x1="0" x2="1" y1="0.5" y2="0.5" id="41108018-2b3b-4f43-be18-1eef76e68138"><stop stop-color="#ffa62e" offset="0"></stop><stop stop-color="#f71b3d" offset="1"></stop></linearGradient><rect width="316.6174784687783" height="247.2" fill="url(#41108018-2b3b-4f43-be18-1eef76e68138)" mask="url(#bdaab7db-7c7d-4ceb-b0f2-4535bcceee83)" data-fill-palette-color="secondary"></rect><mask id="1f3dda37-0477-4853-9d81-7237fac66109"><g id="SvgjsG1417"><svg viewBox="0 0 316.6174784687783 247.2" height="247.2" width="316.6174784687783"><g><svg viewBox="0 0 397.4975999999999 310.34738573249535" height="247.2" width="316.6174784687783"><g></g><g transform="matrix(1,0,0,1,0.9887999999999693,194.81482502060183)"><svg viewBox="0 0 395.52 115.53256071189358" height="115.53256071189358" width="395.52"><g id="SvgjsG1416"><svg viewBox="0 0 395.52 115.53256071189358" height="115.53256071189358" width="395.52" id="SvgjsSvg1415"><g><svg viewBox="0 0 395.52 62.50535557506584" height="62.50535557506584" width="395.52"><g transform="matrix(1,0,0,1,0,0)"><svg width="395.52" viewBox="1.65 -35.5 226.98 36" height="62.50535557506584" data-palette-color="url(#3929438a-f75a-4b0e-b1b7-d7395b32ec8e)"><g class="wordmark-text-0" data-fill-palette-color="primary" id="SvgjsG1414"></g></svg></g></svg></g><g transform="matrix(1,0,0,1,0,77.26136989780508)"><svg viewBox="0 0 395.52 38.27119081408849" height="38.27119081408849" width="395.52"><g transform="matrix(1,0,0,1,0,0)"><svg width="395.52" viewBox="3.1 -37.5 387.54999999999995 37.5" height="38.27119081408849" data-palette-color="url(#41108018-2b3b-4f43-be18-1eef76e68138)"></svg></g></svg></g></svg></g></svg></g><g transform="matrix(1,0,0,1,79.69229560903126,0)"><svg viewBox="0 0 238.1130087819374 159.66599890383694" height="159.66599890383694" width="238.1130087819374"><g><svg xmlns="http://www.w3.org/2000/svg" xmlns:xlink="http://www.w3.org/1999/xlink" version="1.1" x="0" y="0" viewBox="2.2 15.4 85.9 57.6" enable-background="new 0 0 90 90" xml:space="preserve" height="159.66599890383694" width="238.1130087819374" class="icon-icon-0" data-fill-palette-color="accent" id="SvgjsSvg1413"><g fill="white"><path d="M6.6 25c0 1.4 1.1 2.5 2.5 2.5s2.5-1.1 2.5-2.5-1.1-2.5-2.5-2.5S6.6 23.6 6.6 25zM10.7 25c0 0.9-0.7 1.6-1.6 1.6-0.9 0-1.6-0.7-1.6-1.6 0-0.9 0.7-1.6 1.6-1.6C10 23.4 10.7 24.1 10.7 25z" fill="white"></path><path d="M64.3 27.8H17.2v14.1h47.1V27.8zM63.4 41H18.1V28.7h45.3V41z" fill="white"></path><path d="M17.2 53.3H30v-9.7H17.2V53.3zM18.1 44.5h10.9v7.9H18.1V44.5z" fill="white"></path><rect x="32.9" y="44.2" width="31" height="0.9" fill="white"></rect><rect x="32.9" y="46.6" width="31" height="0.9" fill="white"></rect><rect x="32.9" y="49.1" width="31" height="0.9" fill="white"></rect><rect x="32.9" y="51.6" width="18" height="0.9" fill="white"></rect><rect x="27.8" y="70.5" width="26.1" height="2.5" fill="white"></rect><path d="M4.1 20.5h73.5v10.9h1.8V20.5c0-2.8-2.3-5.1-5.1-5.1H7.3c-2.8 0-5.1 2.3-5.1 5.1v38c0 2.8 2.3 5.1 5.1 5.1h24.1L31 69.4h1.8l0.5-5.8h15.1l0.5 5.8h1.8l-0.5-5.8h15.9v-6H4.1V20.5z" fill="white"></path><path d="M82.2 32.3h-9.2c-3.3 0-5.9 2.7-5.9 5.9v28.1c0 3.3 2.7 5.9 5.9 5.9h9.2c3.3 0 5.9-2.7 5.9-5.9V38.2C88.1 35 85.4 32.3 82.2 32.3zM68.2 64.8V38.6h18.7v26.2H68.2zM75.9 35.2h3.3c0.3 0 0.6 0.3 0.6 0.6s-0.3 0.6-0.6 0.6h-3.3c-0.3 0-0.6-0.3-0.6-0.6S75.5 35.2 75.9 35.2zM79.3 68c0 0.7-0.6 1.3-1.3 1.3h-0.7c-0.7 0-1.3-0.6-1.3-1.3V68c0-0.7 0.6-1.3 1.3-1.3h0.7C78.6 66.6 79.3 67.2 79.3 68L79.3 68z" fill="white"></path><path d="M68.9 49.9h17.2v-6.7H68.9V49.9zM69.7 44h15.5v5H69.7V44z" fill="white"></path><path d="M77.2 50.3h-8.4V57h8.4V50.3zM76.4 56.2h-6.6v-5h6.6V56.2z" fill="white"></path><path d="M77.7 57h8.4v-6.7h-8.4V57zM78.6 51.2h6.6v5h-6.6V51.2z" fill="white"></path><path d="M77.4 42.6c1 0 1.8-0.8 1.8-1.8S78.3 39 77.4 39s-1.8 0.8-1.8 1.8S76.4 42.6 77.4 42.6zM77.4 39.9c0.5 0 0.9 0.4 0.9 0.9s-0.4 0.9-0.9 0.9-0.9-0.4-0.9-0.9S76.8 39.9 77.4 39.9z" fill="white"></path><rect x="68.9" y="57.9" width="17.2" height="0.9" fill="white"></rect><rect x="68.9" y="59.6" width="17.2" height="0.9" fill="white"></rect><rect x="68.9" y="61.2" width="17.2" height="0.9" fill="white"></rect><rect x="68.9" y="62.8" width="10.1" height="0.9" fill="white"></rect></g></svg></g></svg></g><g></g></svg></g><defs><mask></mask></defs><mask><g id="SvgjsG1412"><svg viewBox="0 0 316.6174784687783 247.2" height="247.2" width="316.6174784687783"><g><svg viewBox="0 0 397.4975999999999 310.34738573249535" height="247.2" width="316.6174784687783"><g></g><g transform="matrix(1,0,0,1,0.9887999999999693,194.81482502060183)"><svg viewBox="0 0 395.52 115.53256071189358" height="115.53256071189358" width="395.52"><g id="SvgjsG1410"><svg viewBox="0 0 395.52 115.53256071189358" height="115.53256071189358" width="395.52" id="SvgjsSvg1409"><g><svg viewBox="0 0 395.52 62.50535557506584" height="62.50535557506584" width="395.52"><g transform="matrix(1,0,0,1,0,0)"><svg width="395.52" viewBox="1.65 -35.5 226.98 36" height="62.50535557506584" data-palette-color="url(#3929438a-f75a-4b0e-b1b7-d7395b32ec8e)"><g class="wordmark-text-0" data-fill-palette-color="primary" id="SvgjsG1408"></g></svg></g></svg></g><g transform="matrix(1,0,0,1,0,77.26136989780508)"><svg viewBox="0 0 395.52 38.27119081408849" height="38.27119081408849" width="395.52"><g transform="matrix(1,0,0,1,0,0)"><svg width="395.52" viewBox="3.1 -37.5 387.54999999999995 37.5" height="38.27119081408849" data-palette-color="url(#41108018-2b3b-4f43-be18-1eef76e68138)"></svg></g></svg></g></svg></g></svg></g><g transform="matrix(1,0,0,1,79.69229560903126,0)"><svg viewBox="0 0 238.1130087819374 159.66599890383694" height="159.66599890383694" width="238.1130087819374"><g><svg xmlns="http://www.w3.org/2000/svg" xmlns:xlink="http://www.w3.org/1999/xlink" version="1.1" x="0" y="0" viewBox="2.2 15.4 85.9 57.6" enable-background="new 0 0 90 90" xml:space="preserve" height="159.66599890383694" width="238.1130087819374" class="icon-icon-0" data-fill-palette-color="accent" id="SvgjsSvg1407"></svg></g></svg></g><g></g></svg></g><defs><mask></mask></defs></svg></g></mask><mask><g id="SvgjsG1406"><svg viewBox="0 0 316.6174784687783 247.2" height="247.2" width="316.6174784687783"><g><svg viewBox="0 0 397.4975999999999 310.34738573249535" height="247.2" width="316.6174784687783"><g></g><g transform="matrix(1,0,0,1,0.9887999999999693,194.81482502060183)"><svg viewBox="0 0 395.52 115.53256071189358" height="115.53256071189358" width="395.52"><g id="SvgjsG1405"><svg viewBox="0 0 395.52 115.53256071189358" height="115.53256071189358" width="395.52" id="SvgjsSvg1404"><g><svg viewBox="0 0 395.52 62.50535557506584" height="62.50535557506584" width="395.52"><g transform="matrix(1,0,0,1,0,0)"><svg width="395.52" viewBox="1.65 -35.5 226.98 36" height="62.50535557506584" data-palette-color="url(#3929438a-f75a-4b0e-b1b7-d7395b32ec8e)"><g class="wordmark-text-0" data-fill-palette-color="primary" id="SvgjsG1403"></g></svg></g></svg></g><g transform="matrix(1,0,0,1,0,77.26136989780508)"><svg viewBox="0 0 395.52 38.27119081408849" height="38.27119081408849" width="395.52"><g transform="matrix(1,0,0,1,0,0)"><svg width="395.52" viewBox="3.1 -37.5 387.54999999999995 37.5" height="38.27119081408849" data-palette-color="url(#41108018-2b3b-4f43-be18-1eef76e68138)"></svg></g></svg></g></svg></g></svg></g><g transform="matrix(1,0,0,1,79.69229560903126,0)"><svg viewBox="0 0 238.1130087819374 159.66599890383694" height="159.66599890383694" width="238.1130087819374"><g><svg xmlns="http://www.w3.org/2000/svg" xmlns:xlink="http://www.w3.org/1999/xlink" version="1.1" x="0" y="0" viewBox="2.2 15.4 85.9 57.6" enable-background="new 0 0 90 90" xml:space="preserve" height="159.66599890383694" width="238.1130087819374" class="icon-icon-0" data-fill-palette-color="accent" id="SvgjsSvg1401"></svg></g></svg></g><g></g></svg></g><defs><mask></mask></defs><mask><g id="SvgjsG1400"><svg viewBox="0 0 316.6174784687783 247.2" height="247.2" width="316.6174784687783"><g><svg viewBox="0 0 397.4975999999999 310.34738573249535" height="247.2" width="316.6174784687783"><g></g><g transform="matrix(1,0,0,1,0.9887999999999693,194.81482502060183)"><svg viewBox="0 0 395.52 115.53256071189358" height="115.53256071189358" width="395.52"><g id="SvgjsG1399"><svg viewBox="0 0 395.52 115.53256071189358" height="115.53256071189358" width="395.52" id="SvgjsSvg1398"><g><svg viewBox="0 0 395.52 62.50535557506584" height="62.50535557506584" width="395.52"><g transform="matrix(1,0,0,1,0,0)"><svg width="395.52" viewBox="1.65 -35.5 226.98 36" height="62.50535557506584" data-palette-color="url(#3929438a-f75a-4b0e-b1b7-d7395b32ec8e)"><g class="wordmark-text-0" data-fill-palette-color="primary" id="SvgjsG1397"></g></svg></g></svg></g><g transform="matrix(1,0,0,1,0,77.26136989780508)"><svg viewBox="0 0 395.52 38.27119081408849" height="38.27119081408849" width="395.52"><g transform="matrix(1,0,0,1,0,0)"><svg width="395.52" viewBox="3.1 -37.5 387.54999999999995 37.5" height="38.27119081408849" data-palette-color="url(#41108018-2b3b-4f43-be18-1eef76e68138)"></svg></g></svg></g></svg></g></svg></g><g transform="matrix(1,0,0,1,79.69229560903126,0)"><svg viewBox="0 0 238.1130087819374 159.66599890383694" height="159.66599890383694" width="238.1130087819374"><g><svg xmlns="http://www.w3.org/2000/svg" xmlns:xlink="http://www.w3.org/1999/xlink" version="1.1" x="0" y="0" viewBox="2.2 15.4 85.9 57.6" enable-background="new 0 0 90 90" xml:space="preserve" height="159.66599890383694" width="238.1130087819374" class="icon-icon-0" data-fill-palette-color="accent" id="SvgjsSvg1396"></svg></g></svg></g><g></g></svg></g><defs><mask></mask></defs></svg></g></mask></svg></g></mask></svg></g></mask><linearGradient x1="0" x2="1" y1="0.5" y2="0.5" id="5a0d7f43-9426-4f9b-86b4-328df86a3ee3"><stop stop-color="#ffa62e" offset="0"></stop><stop stop-color="#f71b3d" offset="1"></stop></linearGradient><rect width="316.6174784687783" height="247.2" fill="url(#5a0d7f43-9426-4f9b-86b4-328df86a3ee3)" mask="url(#1f3dda37-0477-4853-9d81-7237fac66109)" data-fill-palette-color="accent"></rect></svg><rect width="316.6174784687783" height="247.2" fill="none" stroke="none" visibility="hidden"></rect></g></svg></g></svg>